<svg width="131" height="165" viewBox="0 0 131 165" fill="none" xmlns="http://www.w3.org/2000/svg">
<path d="M26.3601 89.8249L21.3219 89.7932L21.2485 99.8952L26.2867 99.9269L26.3601 89.8249Z" fill="#333333"/>
<path d="M31.3249 99.9589L26.2867 99.9272L26.25 104.978L31.2882 105.01L31.3249 99.9589Z" fill="#333333"/>
<path d="M107.082 75.1791L102.044 75.1475L102.007 80.1985L107.045 80.2301L107.082 75.1791Z" fill="#333333"/>
<path d="M76.9223 64.8906L76.7367 90.1462L81.7753 90.178L81.9236 69.9737L92.0002 70.0377L92.0369 64.9868L76.9223 64.8906Z" fill="#333333"/>
<path d="M66.8825 59.7755L67.0307 39.5712L61.9926 39.5395L62.0295 34.4881L51.9529 34.424L51.916 39.4754L61.9926 39.5395L61.6221 90.0498L66.6601 90.082L66.8456 64.8269L76.9223 64.8905L76.959 59.8396L66.8825 59.7755Z" fill="#333333"/>
<path d="M46.507 89.9539L41.4689 89.9222L41.4321 94.9731L46.4701 95.0053L46.3592 110.158L51.3972 110.191L51.916 39.4754L46.8775 39.4431L46.507 89.9539Z" fill="#333333"/>
<path d="M41.5115 84.8692L26.3969 84.7742L26.3602 89.8252L41.4748 89.9202L41.5115 84.8692Z" fill="#333333"/>
<path d="M36.3194 105.043L31.2814 105.011L31.2073 115.113L36.2453 115.146L36.3194 105.043Z" fill="#333333"/>
<path d="M46.2479 125.311L41.2098 125.28L41.2839 115.178L36.2453 115.146L36.1712 125.248L41.2098 125.28L41.1357 135.382L46.1738 135.414L46.2478 125.312L46.2479 125.311Z" fill="#333333"/>
<path d="M51.2205 135.443L46.1823 135.411L46.1456 140.462L51.1838 140.494L51.2205 135.443Z" fill="#333333"/>
<path d="M92.0002 70.0376L91.8519 90.2419L96.8899 90.2741L97.0014 75.1207L102.039 75.1529L102.077 70.1016L92.0002 70.0376Z" fill="#333333"/>
<path d="M112.083 80.2612L107.045 80.2295L106.751 120.638L111.79 120.67L112.083 80.2612Z" fill="#333333"/>
<path d="M101.595 135.766L96.5567 135.734L96.4458 150.887L56.1394 150.631L56.2135 140.529L51.175 140.497L51.064 155.65L101.447 155.97L101.595 135.766L106.633 135.798L106.745 120.645L101.706 120.613L101.595 135.766Z" fill="#333333"/>
<path d="M26.3543 89.8258L41.4689 89.9221L41.4321 94.973L46.4701 95.0052L46.3592 110.158L51.3972 110.19L51.916 39.4753L61.9926 39.5394L61.6221 90.0497L66.6601 90.0819L66.8456 64.8268L76.9223 64.8904L76.7367 90.146L81.7753 90.1778L81.9235 69.9735L92.0001 70.0375L91.8519 90.2419L96.8899 90.2741L97.0014 75.1206L102.039 75.1529L102.003 80.2038L107.041 80.236L106.745 120.645L101.706 120.612L101.595 135.766L96.5567 135.734L96.4458 150.887L56.1393 150.631L56.2135 140.529L51.175 140.496L51.2122 135.446L46.1737 135.413L46.2478 125.311L41.2097 125.279L41.2839 115.177L36.2453 115.145L36.3194 105.043L31.2814 105.011L31.3181 99.9602L26.2801 99.928L26.3543 89.8258Z" fill="#E8C8AF"/>
</svg>
