<svg width="82" height="112" viewBox="0 0 82 112" fill="none" xmlns="http://www.w3.org/2000/svg">
<path d="M0.354263 50.8258L15.4689 50.9221L15.4321 55.973L20.4701 56.0052L20.3592 71.1582L25.3972 71.1905L25.916 0.475302L35.9926 0.539359L35.6221 51.0497L40.6601 51.0819L40.8456 25.8268L50.9223 25.8904L50.7367 51.146L55.7753 51.1778L55.9235 30.9735L66.0001 31.0375L65.8519 51.2419L70.8899 51.2741L71.0014 36.1206L76.0394 36.1529L76.0026 41.2038L81.0406 41.236L80.7446 81.6448L75.7061 81.6124L75.5952 96.766L70.5567 96.7337L70.4458 111.887L30.1393 111.631L30.2135 101.529L25.175 101.496L25.2122 96.4457L20.1737 96.4134L20.2478 86.3112L15.2097 86.2795L15.2839 76.1773L10.2453 76.1455L10.3194 66.0433L5.28139 66.0111L5.31815 60.9602L0.280149 60.928L0.354263 50.8258Z" fill="#E8C8AF"/>
</svg>
